<mxfile host="app.diagrams.net" agent="Mozilla/5.0 (Windows NT 10.0; Win64; x64) AppleWebKit/537.36 (KHTML, like Gecko) Chrome/133.0.0.0 Safari/537.36 Edg/133.0.0.0" version="26.0.16">
  <diagram name="Page-1" id="hJdHlOp7WaYywv16qiFz">
    <mxGraphModel dx="1115" dy="816" grid="1" gridSize="10" guides="1" tooltips="1" connect="1" arrows="1" fold="1" page="1" pageScale="1" pageWidth="850" pageHeight="1100" math="0" shadow="0">
      <root>
        <mxCell id="0" />
        <mxCell id="1" parent="0" />
        <mxCell id="68dLCP4_2ly4WIFr9Ccp-1" value="&lt;font style=&quot;color: rgb(255, 255, 255);&quot;&gt;Host K8s Control Plane&lt;/font&gt;" style="swimlane;whiteSpace=wrap;html=1;fillColor=#3399FF;strokeColor=#3399FF;" vertex="1" parent="1">
          <mxGeometry x="110" y="190" width="290" height="210" as="geometry">
            <mxRectangle x="110" y="190" width="170" height="30" as="alternateBounds" />
          </mxGeometry>
        </mxCell>
        <mxCell id="68dLCP4_2ly4WIFr9Ccp-2" value="DPF Operator&lt;div&gt;&lt;br&gt;&lt;/div&gt;&lt;div&gt;&lt;br&gt;&lt;/div&gt;&lt;div&gt;&lt;br&gt;&lt;/div&gt;&lt;div&gt;&lt;br&gt;&lt;/div&gt;&lt;div&gt;&lt;br&gt;&lt;/div&gt;" style="rounded=1;whiteSpace=wrap;html=1;strokeColor=#00CC66;" vertex="1" parent="68dLCP4_2ly4WIFr9Ccp-1">
          <mxGeometry x="10" y="100" width="270" height="100" as="geometry" />
        </mxCell>
        <mxCell id="68dLCP4_2ly4WIFr9Ccp-4" value="DPF Services" style="rounded=1;whiteSpace=wrap;html=1;fillColor=#d5e8d4;strokeColor=#82b366;" vertex="1" parent="68dLCP4_2ly4WIFr9Ccp-1">
          <mxGeometry x="20" y="140" width="120" height="40" as="geometry" />
        </mxCell>
        <mxCell id="68dLCP4_2ly4WIFr9Ccp-5" value="DPU Provisioning" style="rounded=1;whiteSpace=wrap;html=1;fillColor=#d5e8d4;strokeColor=#82b366;" vertex="1" parent="68dLCP4_2ly4WIFr9Ccp-1">
          <mxGeometry x="150" y="140" width="120" height="40" as="geometry" />
        </mxCell>
        <mxCell id="68dLCP4_2ly4WIFr9Ccp-13" style="edgeStyle=orthogonalEdgeStyle;rounded=0;orthogonalLoop=1;jettySize=auto;html=1;entryX=0.5;entryY=0;entryDx=0;entryDy=0;" edge="1" parent="68dLCP4_2ly4WIFr9Ccp-1" source="68dLCP4_2ly4WIFr9Ccp-6" target="68dLCP4_2ly4WIFr9Ccp-4">
          <mxGeometry relative="1" as="geometry" />
        </mxCell>
        <mxCell id="68dLCP4_2ly4WIFr9Ccp-6" value="Clustered DPU Services API" style="text;html=1;align=center;verticalAlign=middle;whiteSpace=wrap;rounded=0;" vertex="1" parent="68dLCP4_2ly4WIFr9Ccp-1">
          <mxGeometry x="25" y="40" width="110" height="30" as="geometry" />
        </mxCell>
        <mxCell id="68dLCP4_2ly4WIFr9Ccp-14" style="edgeStyle=orthogonalEdgeStyle;rounded=0;orthogonalLoop=1;jettySize=auto;html=1;entryX=0.5;entryY=0;entryDx=0;entryDy=0;" edge="1" parent="68dLCP4_2ly4WIFr9Ccp-1" source="68dLCP4_2ly4WIFr9Ccp-12" target="68dLCP4_2ly4WIFr9Ccp-5">
          <mxGeometry relative="1" as="geometry" />
        </mxCell>
        <mxCell id="68dLCP4_2ly4WIFr9Ccp-12" value="Clustered DPU Provisioning API" style="text;html=1;align=center;verticalAlign=middle;whiteSpace=wrap;rounded=0;" vertex="1" parent="68dLCP4_2ly4WIFr9Ccp-1">
          <mxGeometry x="155" y="40" width="110" height="30" as="geometry" />
        </mxCell>
        <mxCell id="68dLCP4_2ly4WIFr9Ccp-37" style="edgeStyle=orthogonalEdgeStyle;rounded=0;orthogonalLoop=1;jettySize=auto;html=1;exitX=1;exitY=0.5;exitDx=0;exitDy=0;entryX=0;entryY=0.5;entryDx=0;entryDy=0;" edge="1" parent="1" source="68dLCP4_2ly4WIFr9Ccp-23" target="68dLCP4_2ly4WIFr9Ccp-33">
          <mxGeometry relative="1" as="geometry" />
        </mxCell>
        <mxCell id="68dLCP4_2ly4WIFr9Ccp-23" value="&lt;font style=&quot;color: rgb(255, 255, 255);&quot;&gt;DPU K8s Control Plane&lt;/font&gt;" style="swimlane;whiteSpace=wrap;html=1;fillColor=#4D9900;strokeColor=#4D9900;" vertex="1" parent="1">
          <mxGeometry x="110" y="440" width="290" height="100" as="geometry" />
        </mxCell>
        <mxCell id="68dLCP4_2ly4WIFr9Ccp-24" value="DPF SFC CNI" style="rounded=1;whiteSpace=wrap;html=1;fillColor=#d5e8d4;strokeColor=#82b366;" vertex="1" parent="68dLCP4_2ly4WIFr9Ccp-23">
          <mxGeometry x="20" y="40" width="120" height="40" as="geometry" />
        </mxCell>
        <mxCell id="68dLCP4_2ly4WIFr9Ccp-25" value="DPF SNAP SCI" style="rounded=1;whiteSpace=wrap;html=1;fillColor=#d5e8d4;strokeColor=#82b366;" vertex="1" parent="68dLCP4_2ly4WIFr9Ccp-23">
          <mxGeometry x="150" y="40" width="120" height="40" as="geometry" />
        </mxCell>
        <mxCell id="68dLCP4_2ly4WIFr9Ccp-26" style="edgeStyle=orthogonalEdgeStyle;rounded=0;orthogonalLoop=1;jettySize=auto;html=1;exitX=0.5;exitY=1;exitDx=0;exitDy=0;" edge="1" parent="1" source="68dLCP4_2ly4WIFr9Ccp-4" target="68dLCP4_2ly4WIFr9Ccp-23">
          <mxGeometry relative="1" as="geometry" />
        </mxCell>
        <mxCell id="68dLCP4_2ly4WIFr9Ccp-27" value="&lt;font style=&quot;color: rgb(255, 255, 255);&quot;&gt;NVIDIA NGC (Service Catalog)&lt;/font&gt;" style="swimlane;whiteSpace=wrap;html=1;fillColor=#4D9900;strokeColor=#4D9900;" vertex="1" parent="1">
          <mxGeometry x="110" y="560" width="290" height="100" as="geometry" />
        </mxCell>
        <mxCell id="68dLCP4_2ly4WIFr9Ccp-28" value="HBN" style="rounded=1;whiteSpace=wrap;html=1;fillColor=#d5e8d4;strokeColor=#82b366;" vertex="1" parent="68dLCP4_2ly4WIFr9Ccp-27">
          <mxGeometry x="20" y="50" width="60" height="30" as="geometry" />
        </mxCell>
        <mxCell id="68dLCP4_2ly4WIFr9Ccp-43" value="DOCA OVS" style="rounded=1;whiteSpace=wrap;html=1;fillColor=#d5e8d4;strokeColor=#82b366;" vertex="1" parent="68dLCP4_2ly4WIFr9Ccp-27">
          <mxGeometry x="115" y="50" width="60" height="30" as="geometry" />
        </mxCell>
        <mxCell id="68dLCP4_2ly4WIFr9Ccp-44" value="FireFly" style="rounded=1;whiteSpace=wrap;html=1;fillColor=#d5e8d4;strokeColor=#82b366;" vertex="1" parent="68dLCP4_2ly4WIFr9Ccp-27">
          <mxGeometry x="210" y="50" width="60" height="30" as="geometry" />
        </mxCell>
        <mxCell id="68dLCP4_2ly4WIFr9Ccp-30" value="&lt;font style=&quot;color: rgb(255, 255, 255);&quot;&gt;N * K8s Worker Node&lt;/font&gt;" style="swimlane;whiteSpace=wrap;html=1;fillColor=#3399FF;strokeColor=#3399FF;" vertex="1" parent="1">
          <mxGeometry x="480" y="190" width="330" height="170" as="geometry" />
        </mxCell>
        <mxCell id="68dLCP4_2ly4WIFr9Ccp-33" value="DPF&lt;div&gt;&lt;br&gt;&lt;/div&gt;&lt;div&gt;&lt;br&gt;&lt;/div&gt;&lt;div&gt;&lt;br&gt;&lt;/div&gt;&lt;div&gt;&lt;br&gt;&lt;/div&gt;&lt;div&gt;&lt;br&gt;&lt;/div&gt;" style="rounded=1;whiteSpace=wrap;html=1;strokeColor=#00CC66;" vertex="1" parent="68dLCP4_2ly4WIFr9Ccp-30">
          <mxGeometry x="30" y="55" width="270" height="100" as="geometry" />
        </mxCell>
        <mxCell id="68dLCP4_2ly4WIFr9Ccp-34" value="DPF Core" style="rounded=1;whiteSpace=wrap;html=1;fillColor=#d5e8d4;strokeColor=#82b366;" vertex="1" parent="68dLCP4_2ly4WIFr9Ccp-30">
          <mxGeometry x="210" y="65" width="70" height="40" as="geometry" />
        </mxCell>
        <mxCell id="68dLCP4_2ly4WIFr9Ccp-35" value="DOCA For Host (DMS)" style="rounded=1;whiteSpace=wrap;html=1;fillColor=#d5e8d4;strokeColor=#82b366;" vertex="1" parent="68dLCP4_2ly4WIFr9Ccp-30">
          <mxGeometry x="75" y="110" width="190" height="30" as="geometry" />
        </mxCell>
        <mxCell id="68dLCP4_2ly4WIFr9Ccp-36" style="edgeStyle=orthogonalEdgeStyle;rounded=0;orthogonalLoop=1;jettySize=auto;html=1;exitX=1;exitY=0.5;exitDx=0;exitDy=0;entryX=0;entryY=0.25;entryDx=0;entryDy=0;" edge="1" parent="1" source="68dLCP4_2ly4WIFr9Ccp-5" target="68dLCP4_2ly4WIFr9Ccp-33">
          <mxGeometry relative="1" as="geometry" />
        </mxCell>
        <mxCell id="68dLCP4_2ly4WIFr9Ccp-38" value="&lt;font style=&quot;color: rgb(255, 255, 255);&quot;&gt;Worker Node&#39;s DPU&lt;/font&gt;" style="swimlane;whiteSpace=wrap;html=1;fillColor=#4D9900;strokeColor=#4D9900;" vertex="1" parent="1">
          <mxGeometry x="480" y="420" width="340" height="240" as="geometry" />
        </mxCell>
        <mxCell id="68dLCP4_2ly4WIFr9Ccp-47" value="" style="rounded=1;whiteSpace=wrap;html=1;strokeColor=#00CC66;" vertex="1" parent="68dLCP4_2ly4WIFr9Ccp-38">
          <mxGeometry x="20" y="35" width="150" height="190" as="geometry" />
        </mxCell>
        <mxCell id="68dLCP4_2ly4WIFr9Ccp-48" value="&lt;font style=&quot;font-size: 14px;&quot;&gt;&lt;b&gt;Containerized Service&lt;/b&gt;&lt;/font&gt;" style="text;html=1;align=center;verticalAlign=middle;whiteSpace=wrap;rounded=0;rotation=270;" vertex="1" parent="68dLCP4_2ly4WIFr9Ccp-38">
          <mxGeometry x="-32.5" y="117.5" width="155" height="30" as="geometry" />
        </mxCell>
        <mxCell id="68dLCP4_2ly4WIFr9Ccp-46" value="" style="aspect=fixed;sketch=0;html=1;dashed=0;whitespace=wrap;verticalLabelPosition=bottom;verticalAlign=top;fillColor=#2875E2;strokeColor=#ffffff;points=[[0.005,0.63,0],[0.1,0.2,0],[0.9,0.2,0],[0.5,0,0],[0.995,0.63,0],[0.72,0.99,0],[0.5,1,0],[0.28,0.99,0]];shape=mxgraph.kubernetes.icon2;prIcon=job" vertex="1" parent="68dLCP4_2ly4WIFr9Ccp-38">
          <mxGeometry x="70.28999999999999" y="70" width="35.42" height="34" as="geometry" />
        </mxCell>
        <mxCell id="68dLCP4_2ly4WIFr9Ccp-55" style="edgeStyle=none;rounded=0;orthogonalLoop=1;jettySize=auto;html=1;exitX=0.28;exitY=0.99;exitDx=0;exitDy=0;exitPerimeter=0;endArrow=none;startFill=0;" edge="1" parent="68dLCP4_2ly4WIFr9Ccp-38" source="68dLCP4_2ly4WIFr9Ccp-50">
          <mxGeometry relative="1" as="geometry">
            <mxPoint x="50" y="290" as="targetPoint" />
            <Array as="points">
              <mxPoint x="80" y="250" />
              <mxPoint x="50" y="250" />
            </Array>
          </mxGeometry>
        </mxCell>
        <mxCell id="68dLCP4_2ly4WIFr9Ccp-58" style="edgeStyle=none;rounded=0;orthogonalLoop=1;jettySize=auto;html=1;exitX=0.72;exitY=0.99;exitDx=0;exitDy=0;exitPerimeter=0;endArrow=none;startFill=0;" edge="1" parent="68dLCP4_2ly4WIFr9Ccp-38" source="68dLCP4_2ly4WIFr9Ccp-50">
          <mxGeometry relative="1" as="geometry">
            <mxPoint x="130" y="290" as="targetPoint" />
            <Array as="points">
              <mxPoint x="96" y="250" />
              <mxPoint x="130" y="250" />
            </Array>
          </mxGeometry>
        </mxCell>
        <mxCell id="68dLCP4_2ly4WIFr9Ccp-50" value="" style="aspect=fixed;sketch=0;html=1;dashed=0;whitespace=wrap;verticalLabelPosition=bottom;verticalAlign=top;fillColor=#2875E2;strokeColor=#ffffff;points=[[0.005,0.63,0],[0.1,0.2,0],[0.9,0.2,0],[0.5,0,0],[0.995,0.63,0],[0.72,0.99,0],[0.5,1,0],[0.28,0.99,0]];shape=mxgraph.kubernetes.icon2;prIcon=job" vertex="1" parent="68dLCP4_2ly4WIFr9Ccp-38">
          <mxGeometry x="70.29000000000005" y="147.5" width="35.42" height="34" as="geometry" />
        </mxCell>
        <mxCell id="68dLCP4_2ly4WIFr9Ccp-51" value="" style="aspect=fixed;sketch=0;html=1;dashed=0;whitespace=wrap;verticalLabelPosition=bottom;verticalAlign=top;fillColor=#2875E2;strokeColor=#ffffff;points=[[0.005,0.63,0],[0.1,0.2,0],[0.9,0.2,0],[0.5,0,0],[0.995,0.63,0],[0.72,0.99,0],[0.5,1,0],[0.28,0.99,0]];shape=mxgraph.kubernetes.icon2;prIcon=job" vertex="1" parent="68dLCP4_2ly4WIFr9Ccp-38">
          <mxGeometry x="121.50000000000011" y="104" width="35.42" height="34" as="geometry" />
        </mxCell>
        <mxCell id="68dLCP4_2ly4WIFr9Ccp-52" style="edgeStyle=orthogonalEdgeStyle;rounded=0;orthogonalLoop=1;jettySize=auto;html=1;exitX=0.5;exitY=1;exitDx=0;exitDy=0;exitPerimeter=0;entryX=0.5;entryY=0;entryDx=0;entryDy=0;entryPerimeter=0;endArrow=none;startFill=0;" edge="1" parent="68dLCP4_2ly4WIFr9Ccp-38" source="68dLCP4_2ly4WIFr9Ccp-46" target="68dLCP4_2ly4WIFr9Ccp-50">
          <mxGeometry relative="1" as="geometry" />
        </mxCell>
        <mxCell id="68dLCP4_2ly4WIFr9Ccp-59" value="DPU Core&lt;div&gt;&lt;br&gt;&lt;/div&gt;&lt;div&gt;&lt;br&gt;&lt;/div&gt;&lt;div&gt;&lt;br&gt;&lt;/div&gt;&lt;div&gt;&lt;br&gt;&lt;/div&gt;&lt;div&gt;&lt;br&gt;&lt;/div&gt;&lt;div&gt;&lt;br&gt;&lt;/div&gt;&lt;div&gt;&lt;br&gt;&lt;/div&gt;&lt;div&gt;&lt;br&gt;&lt;/div&gt;&lt;div&gt;&lt;br&gt;&lt;/div&gt;&lt;div&gt;&lt;br&gt;&lt;/div&gt;&lt;div&gt;&lt;br&gt;&lt;/div&gt;" style="rounded=1;whiteSpace=wrap;html=1;strokeColor=#00CC66;" vertex="1" parent="68dLCP4_2ly4WIFr9Ccp-38">
          <mxGeometry x="210" y="37.5" width="100" height="190" as="geometry" />
        </mxCell>
        <mxCell id="68dLCP4_2ly4WIFr9Ccp-60" value="Networking" style="rounded=1;whiteSpace=wrap;html=1;fillColor=#d5e8d4;strokeColor=#82b366;" vertex="1" parent="68dLCP4_2ly4WIFr9Ccp-38">
          <mxGeometry x="220" y="70" width="80" height="26" as="geometry" />
        </mxCell>
        <mxCell id="68dLCP4_2ly4WIFr9Ccp-61" value="Service Orchestration" style="rounded=1;whiteSpace=wrap;html=1;fillColor=#d5e8d4;strokeColor=#82b366;" vertex="1" parent="68dLCP4_2ly4WIFr9Ccp-38">
          <mxGeometry x="220" y="108" width="80" height="26" as="geometry" />
        </mxCell>
        <mxCell id="68dLCP4_2ly4WIFr9Ccp-62" value="Service Chaining" style="rounded=1;whiteSpace=wrap;html=1;fillColor=#d5e8d4;strokeColor=#82b366;" vertex="1" parent="68dLCP4_2ly4WIFr9Ccp-38">
          <mxGeometry x="220" y="147.5" width="80" height="26" as="geometry" />
        </mxCell>
        <mxCell id="68dLCP4_2ly4WIFr9Ccp-63" value="Telemetrry Debuggabiilty" style="rounded=1;whiteSpace=wrap;html=1;fillColor=#d5e8d4;strokeColor=#82b366;" vertex="1" parent="68dLCP4_2ly4WIFr9Ccp-38">
          <mxGeometry x="220" y="190" width="80" height="26" as="geometry" />
        </mxCell>
        <mxCell id="68dLCP4_2ly4WIFr9Ccp-54" value="" style="endArrow=none;html=1;rounded=0;entryX=0.005;entryY=0.63;entryDx=0;entryDy=0;entryPerimeter=0;" edge="1" parent="1">
          <mxGeometry width="50" height="50" relative="1" as="geometry">
            <mxPoint x="568" y="545" as="sourcePoint" />
            <mxPoint x="600.6771000000001" y="545.4200000000001" as="targetPoint" />
          </mxGeometry>
        </mxCell>
        <mxCell id="68dLCP4_2ly4WIFr9Ccp-64" style="edgeStyle=none;rounded=0;orthogonalLoop=1;jettySize=auto;html=1;exitX=0.5;exitY=1;exitDx=0;exitDy=0;entryX=0.5;entryY=0;entryDx=0;entryDy=0;" edge="1" parent="1" source="68dLCP4_2ly4WIFr9Ccp-35" target="68dLCP4_2ly4WIFr9Ccp-38">
          <mxGeometry relative="1" as="geometry" />
        </mxCell>
      </root>
    </mxGraphModel>
  </diagram>
</mxfile>
